<svg 
 xmlns="http://www.w3.org/2000/svg"
 xmlns:xlink="http://www.w3.org/1999/xlink"
 width="37px" height="36px">
<path fill-rule="evenodd"  fill="rgb(255, 255, 255)"
 d="M18.000,2.000 C26.837,2.000 34.000,9.163 34.000,18.000 C34.000,26.837 26.837,34.000 18.000,34.000 C9.163,34.000 2.000,26.837 2.000,18.000 C2.000,9.163 9.163,2.000 18.000,2.000 Z"/>
<path fill-rule="evenodd"  fill="rgb(250, 112, 1)"
 d="M18.185,-0.000 C8.142,-0.000 -0.000,8.059 -0.000,18.001 C-0.000,27.941 8.142,36.000 18.185,36.000 C28.229,36.000 36.371,27.941 36.371,18.001 C36.371,8.059 28.229,-0.000 18.185,-0.000 ZM16.651,4.036 C16.695,3.807 16.900,3.640 17.138,3.640 L20.861,3.640 C21.041,3.640 21.207,3.735 21.295,3.890 C21.383,4.045 21.378,4.233 21.283,4.383 L19.521,7.160 L21.041,7.160 C21.217,7.160 21.380,7.251 21.468,7.399 C21.558,7.548 21.561,7.731 21.476,7.881 L18.012,14.024 C17.915,14.197 17.720,14.295 17.520,14.272 C17.248,14.240 17.053,13.999 17.085,13.732 L17.559,9.777 L16.146,9.777 C15.998,9.777 15.858,9.712 15.764,9.601 C15.669,9.489 15.631,9.343 15.658,9.200 L16.651,4.036 ZM28.036,11.420 L28.036,15.344 L28.036,23.470 C28.036,23.818 28.021,24.154 27.994,24.481 C27.807,26.765 26.965,28.534 25.463,29.788 C23.893,31.220 21.464,31.937 18.179,31.937 C14.894,31.937 12.467,31.220 10.897,29.788 C9.396,28.534 8.552,26.765 8.365,24.481 C8.338,24.154 8.326,23.818 8.326,23.470 L8.326,15.344 L8.326,11.420 L8.326,8.945 C12.038,8.945 13.395,11.298 13.395,11.298 L13.395,22.948 C13.395,24.729 13.777,26.010 14.538,26.792 C15.298,27.574 16.511,27.964 18.179,27.964 C19.846,27.964 21.061,27.574 21.820,26.792 C22.581,26.010 22.964,24.729 22.964,22.948 L22.964,11.298 C22.964,11.298 24.323,8.945 28.036,8.945 L28.036,11.420 Z"/>
</svg>